<svg xmlns="http://www.w3.org/2000/svg" viewBox="0 0 48 48" width="48" height="48">
  <defs>
    <linearGradient id="bg" x1="0%" y1="0%" x2="100%" y2="100%">
      <stop offset="0%" style="stop-color:#1a1a2e"/>
      <stop offset="100%" style="stop-color:#16213e"/>
    </linearGradient>
    <linearGradient id="film" x1="0%" y1="0%" x2="0%" y2="100%">
      <stop offset="0%" style="stop-color:#e94560"/>
      <stop offset="100%" style="stop-color:#c23152"/>
    </linearGradient>
  </defs>
  <!-- Background -->
  <rect width="48" height="48" rx="10" fill="url(#bg)"/>
  <!-- Film strip left -->
  <rect x="6" y="8" width="8" height="32" rx="1" fill="#533483" opacity="0.6"/>
  <rect x="7" y="10" width="2.5" height="3" rx="0.5" fill="#1a1a2e"/>
  <rect x="7" y="15" width="2.5" height="3" rx="0.5" fill="#1a1a2e"/>
  <rect x="7" y="20" width="2.5" height="3" rx="0.5" fill="#1a1a2e"/>
  <rect x="7" y="25" width="2.5" height="3" rx="0.5" fill="#1a1a2e"/>
  <rect x="7" y="30" width="2.5" height="3" rx="0.5" fill="#1a1a2e"/>
  <rect x="7" y="35" width="2.5" height="3" rx="0.5" fill="#1a1a2e"/>
  <rect x="10.5" y="10" width="2.5" height="3" rx="0.5" fill="#1a1a2e"/>
  <rect x="10.5" y="15" width="2.5" height="3" rx="0.5" fill="#1a1a2e"/>
  <rect x="10.5" y="20" width="2.5" height="3" rx="0.5" fill="#1a1a2e"/>
  <rect x="10.5" y="25" width="2.5" height="3" rx="0.5" fill="#1a1a2e"/>
  <rect x="10.5" y="30" width="2.5" height="3" rx="0.5" fill="#1a1a2e"/>
  <rect x="10.5" y="35" width="2.5" height="3" rx="0.5" fill="#1a1a2e"/>
  <!-- Star / ranking symbol -->
  <polygon points="28,12 30.5,17.2 36,18 32,22 33,27.5 28,25 23,27.5 24,22 20,18 25.5,17.2" fill="url(#film)"/>
  <!-- "10" text -->
  <text x="28" y="40" text-anchor="middle" font-family="Arial,sans-serif" font-weight="bold" font-size="11" fill="#e94560">10</text>
  <!-- Small accent -->
  <circle cx="40" cy="10" r="2" fill="#e94560" opacity="0.5"/>
</svg>