<svg xmlns="http://www.w3.org/2000/svg" viewBox="0 0 96 96" width="96" height="96">
  <defs>
    <linearGradient id="bg96" x1="0%" y1="0%" x2="100%" y2="100%">
      <stop offset="0%" style="stop-color:#1a1a2e"/>
      <stop offset="100%" style="stop-color:#16213e"/>
    </linearGradient>
    <linearGradient id="film96" x1="0%" y1="0%" x2="0%" y2="100%">
      <stop offset="0%" style="stop-color:#e94560"/>
      <stop offset="100%" style="stop-color:#c23152"/>
    </linearGradient>
    <linearGradient id="gold96" x1="0%" y1="0%" x2="100%" y2="100%">
      <stop offset="0%" style="stop-color:#f5c518"/>
      <stop offset="100%" style="stop-color:#e0a800"/>
    </linearGradient>
  </defs>
  <!-- Background -->
  <rect width="96" height="96" rx="20" fill="url(#bg96)"/>
  <!-- Film strip left side -->
  <rect x="10" y="14" width="16" height="68" rx="2" fill="#533483" opacity="0.6"/>
  <rect x="12" y="18" width="5" height="6" rx="1" fill="#1a1a2e"/>
  <rect x="12" y="28" width="5" height="6" rx="1" fill="#1a1a2e"/>
  <rect x="12" y="38" width="5" height="6" rx="1" fill="#1a1a2e"/>
  <rect x="12" y="48" width="5" height="6" rx="1" fill="#1a1a2e"/>
  <rect x="12" y="58" width="5" height="6" rx="1" fill="#1a1a2e"/>
  <rect x="12" y="68" width="5" height="6" rx="1" fill="#1a1a2e"/>
  <rect x="19" y="18" width="5" height="6" rx="1" fill="#1a1a2e"/>
  <rect x="19" y="28" width="5" height="6" rx="1" fill="#1a1a2e"/>
  <rect x="19" y="38" width="5" height="6" rx="1" fill="#1a1a2e"/>
  <rect x="19" y="48" width="5" height="6" rx="1" fill="#1a1a2e"/>
  <rect x="19" y="58" width="5" height="6" rx="1" fill="#1a1a2e"/>
  <rect x="19" y="68" width="5" height="6" rx="1" fill="#1a1a2e"/>
  <!-- Star / ranking symbol -->
  <polygon points="56,20 61.5,31.5 74,33.5 65,42.5 67,55 56,49 45,55 47,42.5 38,33.5 50.5,31.5" fill="url(#film96)" stroke="#f5c518" stroke-width="1" stroke-opacity="0.4"/>
  <!-- "TOP" text -->
  <text x="56" y="70" text-anchor="middle" font-family="Arial,sans-serif" font-weight="bold" font-size="14" fill="#f5c518" letter-spacing="1">TOP</text>
  <!-- "10" text -->
  <text x="56" y="85" text-anchor="middle" font-family="Arial,sans-serif" font-weight="bold" font-size="18" fill="url(#film96)">10</text>
  <!-- Small accents -->
  <circle cx="80" cy="18" r="3" fill="#e94560" opacity="0.5"/>
  <circle cx="85" cy="26" r="2" fill="#f5c518" opacity="0.4"/>
</svg>