<svg xmlns="http://www.w3.org/2000/svg" viewBox="0 0 512 512" width="512" height="512">
  <defs>
    <linearGradient id="bg" x1="0%" y1="0%" x2="100%" y2="100%">
      <stop offset="0%" style="stop-color:#1a1a2e"/>
      <stop offset="100%" style="stop-color:#16213e"/>
    </linearGradient>
    <linearGradient id="star" x1="0%" y1="0%" x2="0%" y2="100%">
      <stop offset="0%" style="stop-color:#e94560"/>
      <stop offset="100%" style="stop-color:#c23152"/>
    </linearGradient>
  </defs>
  <rect width="512" height="512" rx="108" fill="url(#bg)"/>
  <!-- Film strip left -->
  <rect x="52" y="80" width="88" height="352" rx="10" fill="#533483" opacity="0.55"/>
  <rect x="62" y="100" width="28" height="32" rx="5" fill="#1a1a2e"/>
  <rect x="62" y="150" width="28" height="32" rx="5" fill="#1a1a2e"/>
  <rect x="62" y="200" width="28" height="32" rx="5" fill="#1a1a2e"/>
  <rect x="62" y="250" width="28" height="32" rx="5" fill="#1a1a2e"/>
  <rect x="62" y="300" width="28" height="32" rx="5" fill="#1a1a2e"/>
  <rect x="62" y="350" width="28" height="32" rx="5" fill="#1a1a2e"/>
  <rect x="102" y="100" width="28" height="32" rx="5" fill="#1a1a2e"/>
  <rect x="102" y="150" width="28" height="32" rx="5" fill="#1a1a2e"/>
  <rect x="102" y="200" width="28" height="32" rx="5" fill="#1a1a2e"/>
  <rect x="102" y="250" width="28" height="32" rx="5" fill="#1a1a2e"/>
  <rect x="102" y="300" width="28" height="32" rx="5" fill="#1a1a2e"/>
  <rect x="102" y="350" width="28" height="32" rx="5" fill="#1a1a2e"/>
  <!-- Star -->
  <polygon points="300,100 330,168 404,178 350,230 364,304 300,270 236,304 250,230 196,178 270,168" fill="url(#star)" stroke="#f5c518" stroke-width="3" stroke-opacity="0.35"/>
  <!-- TOP -->
  <text x="300" y="385" text-anchor="middle" font-family="Arial,Helvetica,sans-serif" font-weight="bold" font-size="76" fill="#f5c518" letter-spacing="6">TOP</text>
  <!-- 10 -->
  <text x="300" y="450" text-anchor="middle" font-family="Arial,Helvetica,sans-serif" font-weight="bold" font-size="92" fill="#e94560">10</text>
  <!-- Accent dots -->
  <circle cx="428" cy="96" r="16" fill="#e94560" opacity="0.45"/>
  <circle cx="452" cy="140" r="10" fill="#f5c518" opacity="0.35"/>
</svg>
